<svg viewBox="0 0 232 64" xmlns="http://www.w3.org/2000/svg"><g transform="translate(8,8) scale(0.5)"><rect x="4" y="4" width="88" height="88" rx="22" fill="#4338CA"/><path d="M22 72 L38 54 L50 60 L64 40 L76 28 L76 72 Z" fill="#FFFFFF" opacity="0.16"/><polyline points="22,72 38,54 50,60 64,40 76,28" fill="none" stroke="#FFFFFF" stroke-width="5" stroke-linecap="round" stroke-linejoin="round"/><circle cx="76" cy="28" r="6" fill="#14B8A6" stroke="#FFFFFF" stroke-width="2.5"/></g><g transform="translate(72,35) scale(0.014648,-0.014648)" fill="#0F172A"><path transform="translate(0.0,0)" d="M665.2969710305333 -23.804464519023895Q483.58198730647564 -23.804464519023895 352.40896118432283 35.60437621921301Q221.23593506217003 95.01321695744991 150.24047282338142 206.77968139201403Q79.24501058459282 318.54614582657814 77.88494303822517 475.1990592330694H337.9664168357849Q340.2642106190324 388.24744790792465 380.64443604275584 326.61601643264294Q421.0246614664793 264.9845849573612 494.1961401440203 232.69554687291384Q567.3676188215613 200.40650878846645 666.2169067412615 200.40650878846645Q758.519698895514 200.40650878846645 827.2801643908024 226.9289660640061Q896.0406298860908 253.45142333954573 934.6253499388695 301.8940861001611Q973.2100699916482 350.3367488607764 973.2100699916482 415.2751212567091Q973.2100699916482 469.1778019219637 944.014379478991 508.07585164532065Q914.8186889663339 546.9739013686776 854.1429565437138 575.5518489591777Q793.4672241210938 604.1297965496778 698.1693066433072 626.0410229489207L536.0000423192978 664.1035083010793Q320.6668823286891 714.072578124702 215.16930216923356 813.5745666511357Q109.67172200977802 913.0765551775694 109.67172200977802 1070.2674235031009Q109.67172200977802 1203.5205436199903 178.6715584360063 1302.9781457521021Q247.6713948622346 1402.435747884214 371.11108846589923 1457.7734159342945Q494.55078206956387 1513.111083984375 657.0258764699101 1513.111083984375Q821.6475878953934 1513.111083984375 942.7539595589042 1456.2311560064554Q1063.860331222415 1399.3512280285358 1131.473531499505 1295.0136617049575Q1199.0867317765951 1190.6760953813791 1203.1267203837633 1048.0631722062826H950.0718750059605Q941.8807096406817 1160.9349601268768 862.8824405968189 1224.8108728043735Q783.8841715529561 1288.6867854818702 655.4256779029965 1288.6867854818702Q572.7851245179772 1288.6867854818702 509.5891479551792 1262.49767171219Q446.3931713923812 1236.3085579425097 410.8884916231036 1190.1237129718065Q375.38381185382605 1143.9388680011034 375.38381185382605 1083.867255859077Q375.38381185382605 1031.022336423397 405.2951680570841 993.7420397922397Q435.2065242603421 956.4617431610823 494.6889925226569 929.5260253883898Q554.1714607849717 902.5903076156974 642.7715104222298 881.8968758136034L791.4476302117109 846.9188159182668Q899.9180948883295 822.4033015966415 983.0311914049089 785.7055900096893Q1066.1442879214883 749.0078784227371 1122.7042972818017 698.0657303929329Q1179.2643066421151 647.1235823631287 1208.2110705599189 579.9858406633139Q1237.1578344777226 512.8480989634991 1237.1578344777226 427.51028157770634Q1237.1578344777226 290.50627848505974 1167.866854660213 188.92644124478102Q1098.5758748427033 87.3466040045023 970.327284347266 31.7710697427392Q842.0786938518286 -23.804464519023895 665.2969710305333 -23.804464519023895Z"/><path transform="translate(1280.9,0)" d="M666.2012223377824 1069.7781982421875V866.722664386034H17.511075846850872V1069.7781982421875ZM196.18665527552366 1352.88916015625H450.56558268517256V305.4739314839244Q450.56558268517256 248.48249918967485 474.21683472022414 225.0800984725356Q497.8680867552757 201.67769775539637 558.9216243550181 201.67769775539637Q581.7881941795349 201.67769775539637 613.1279801502824 202.60661336407065Q644.4677661210299 203.53552897274494 663.907858081162 204.42444498836994L673.0103222727776 2.0533666983246803Q643.0059114694595 -0.888916015625 600.1463374942541 -2.1200598143041134Q557.2867635190487 -3.3512036129832268 516.0072989985347 -3.3512036129832268Q354.4082690477371 -3.3512036129832268 275.2974621616304 65.16646036878228Q196.18665527552366 133.6841243505478 196.18665527552366 271.9635856151581Z"/><path transform="translate(1963.7,0)" d="M117.43192708492279 0V1069.7781982421875H362.65537272393703V891.8052181005478H367.8732324242592Q397.2376912459731 984.1915315762162 462.3045080602169 1032.664976399392Q527.3713248744607 1081.1384212225676 628.5134244859219 1081.1384212225676Q653.0066495835781 1081.1384212225676 675.284427497536 1079.680624999106Q697.5622054114938 1078.2228287756443 713.4553792402148 1076.4450358077884V849.1227229833603Q699.0600073337555 851.7805281579494 664.6624226979911 854.949475504458Q630.2648380622268 858.1184228509665 593.607076831162 858.1184228509665Q531.2780769914389 858.1184228509665 480.7179166711867 829.9539424628019Q430.1577563509345 801.7894620746374 400.9843054227531 746.876033525914Q371.8108544945717 691.9626049771905 371.8108544945717 611.3535384088755V0Z"/><path transform="translate(2677.6,0)" d="M437.9118391945958 -18.42225504666567Q332.32962483912706 -18.42225504666567 249.43179240077734 17.546692300587893Q166.53395996242762 53.51563964784145 118.57834879681468 125.13793782517314Q70.62273763120174 196.76023600250483 70.62273763120174 302.95138020813465Q70.62273763120174 394.18255615234375 104.85837809368968 453.50917683914304Q139.09401855617762 512.8357975259423 197.7629960142076 548.3001529946923Q256.4319734722376 583.7645084634423 331.64533976465464 602.1844555661082Q406.8587060570717 620.6044026687741 488.03638672083616 629.1644612625241Q586.0942732766271 640.222347818315 644.2654443383217 648.4422969557345Q702.4366154000163 656.662246093154 728.0099865756929 673.6444453932345Q753.5833577513695 690.626644693315 753.5833577513695 727.0490332022309V734.3202018216252Q753.5833577513695 781.9074674472213 730.756519779563 817.316787108779Q707.9296818077564 852.7261067703366 664.7404170781374 872.617455240339Q621.5511523485184 892.5088037103415 560.141692712903 892.5088037103415Q498.4655851274729 892.5088037103415 451.7740620970726 872.7974910475314Q405.0825390666723 853.0861783847213 377.23782674595714 819.0659126788378Q349.39311442524195 785.0456469729543 343.1618994176388 741.716544598341L101.00472331047058 752.7036149129272Q113.40939209610224 856.6144482493401 172.92945394665003 931.9141996316612Q232.44951579719782 1007.2139510139823 332.2336670011282 1048.389359947294Q432.0178182050586 1089.5647688806057 564.3903173878789 1089.5647688806057Q661.8296069353819 1089.5647688806057 742.9826367199421 1066.1004073098302Q824.1356665045023 1042.6360457390547 882.9867187514901 996.6094555705786Q941.8377709984779 950.5828654021025 973.8422709181905 882.7806111685932Q1005.846770837903 814.9783569350839 1005.846770837903 726.1603417918086V0H757.769943036139V150.3644807934761H752.3121077492833Q727.6323413103819 103.22261718660593 686.8413114435971 64.85590006411076Q646.0502815768123 26.48918294161558 585.0701485201716 4.0334639474749565Q524.090015463531 -18.42225504666567 437.9118391945958 -18.42225504666567ZM501.06589518487453 169.89192871004343Q582.7778670266271 169.89192871004343 639.5271451845765 200.24557901918888Q696.276423342526 230.59922932833433 725.6498612500727 281.15521118044853Q755.0232991576195 331.71119303256273 755.0232991576195 392.96928222477436V511.6012646481395Q743.0011433959007 503.3922875970602 718.4875850453973 496.03666992112994Q693.9740266948938 488.6810522451997 661.0936739109457 482.14989379793406Q628.2133211269975 475.61873535066843 591.5730049647391 469.7720430493355Q554.9326888024807 463.92535074800253 519.0748030617833 458.7920247390866Q464.22559570521116 451.1520100906491 418.4407698586583 433.43193155899644Q372.65594401210546 415.71185302734375 345.2956787124276 384.9471830241382Q317.93541341274977 354.1825130209327 317.93541341274977 305.3331119790673Q317.93541341274977 262.65272460877895 340.7933862321079 232.25468749925494Q363.651359051466 201.85665038973093 404.7983854189515 185.87428954988718Q445.94541178643703 169.89192871004343 501.06589518487453 169.89192871004343Z"/><path transform="translate(3766.5,0)" d="M666.2012223377824 1069.7781982421875V866.722664386034H17.511075846850872V1069.7781982421875ZM196.18665527552366 1352.88916015625H450.56558268517256V305.4739314839244Q450.56558268517256 248.48249918967485 474.21683472022414 225.0800984725356Q497.8680867552757 201.67769775539637 558.9216243550181 201.67769775539637Q581.7881941795349 201.67769775539637 613.1279801502824 202.60661336407065Q644.4677661210299 203.53552897274494 663.907858081162 204.42444498836994L673.0103222727776 2.0533666983246803Q643.0059114694595 -0.888916015625 600.1463374942541 -2.1200598143041134Q557.2867635190487 -3.3512036129832268 516.0072989985347 -3.3512036129832268Q354.4082690477371 -3.3512036129832268 275.2974621616304 65.16646036878228Q196.18665527552366 133.6841243505478 196.18665527552366 271.9635856151581Z"/></g><g transform="translate(72,35) scale(0.014648,-0.014648)" fill="#4338CA"><path transform="translate(4449.3,0)" d="M129.3523372411728 0V1490H394.7711881548166V228.17504720389843H1078.2298990935087V0Z"/><path transform="translate(5548.2,0)" d="M437.9118391945958 -18.42225504666567Q332.32962483912706 -18.42225504666567 249.43179240077734 17.546692300587893Q166.53395996242762 53.51563964784145 118.57834879681468 125.13793782517314Q70.62273763120174 196.76023600250483 70.62273763120174 302.95138020813465Q70.62273763120174 394.18255615234375 104.85837809368968 453.50917683914304Q139.09401855617762 512.8357975259423 197.7629960142076 548.3001529946923Q256.4319734722376 583.7645084634423 331.64533976465464 602.1844555661082Q406.8587060570717 620.6044026687741 488.03638672083616 629.1644612625241Q586.0942732766271 640.222347818315 644.2654443383217 648.4422969557345Q702.4366154000163 656.662246093154 728.0099865756929 673.6444453932345Q753.5833577513695 690.626644693315 753.5833577513695 727.0490332022309V734.3202018216252Q753.5833577513695 781.9074674472213 730.756519779563 817.316787108779Q707.9296818077564 852.7261067703366 664.7404170781374 872.617455240339Q621.5511523485184 892.5088037103415 560.141692712903 892.5088037103415Q498.4655851274729 892.5088037103415 451.7740620970726 872.7974910475314Q405.0825390666723 853.0861783847213 377.23782674595714 819.0659126788378Q349.39311442524195 785.0456469729543 343.1618994176388 741.716544598341L101.00472331047058 752.7036149129272Q113.40939209610224 856.6144482493401 172.92945394665003 931.9141996316612Q232.44951579719782 1007.2139510139823 332.2336670011282 1048.389359947294Q432.0178182050586 1089.5647688806057 564.3903173878789 1089.5647688806057Q661.8296069353819 1089.5647688806057 742.9826367199421 1066.1004073098302Q824.1356665045023 1042.6360457390547 882.9867187514901 996.6094555705786Q941.8377709984779 950.5828654021025 973.8422709181905 882.7806111685932Q1005.846770837903 814.9783569350839 1005.846770837903 726.1603417918086V0H757.769943036139V150.3644807934761H752.3121077492833Q727.6323413103819 103.22261718660593 686.8413114435971 64.85590006411076Q646.0502815768123 26.48918294161558 585.0701485201716 4.0334639474749565Q524.090015463531 -18.42225504666567 437.9118391945958 -18.42225504666567ZM501.06589518487453 169.89192871004343Q582.7778670266271 169.89192871004343 639.5271451845765 200.24557901918888Q696.276423342526 230.59922932833433 725.6498612500727 281.15521118044853Q755.0232991576195 331.71119303256273 755.0232991576195 392.96928222477436V511.6012646481395Q743.0011433959007 503.3922875970602 718.4875850453973 496.03666992112994Q693.9740266948938 488.6810522451997 661.0936739109457 482.14989379793406Q628.2133211269975 475.61873535066843 591.5730049647391 469.7720430493355Q554.9326888024807 463.92535074800253 519.0748030617833 458.7920247390866Q464.22559570521116 451.1520100906491 418.4407698586583 433.43193155899644Q372.65594401210546 415.71185302734375 345.2956787124276 384.9471830241382Q317.93541341274977 354.1825130209327 317.93541341274977 305.3331119790673Q317.93541341274977 262.65272460877895 340.7933862321079 232.25468749925494Q363.651359051466 201.85665038973093 404.7983854189515 185.87428954988718Q445.94541178643703 169.89192871004343 501.06589518487453 169.89192871004343Z"/><path transform="translate(6637.1,0)" d="M692.3270296230912 -21.20886881649494Q617.562332354486 -21.20886881649494 556.295587155968 1.6490120440721512Q495.0288419574499 24.506892904639244 448.82661010697484 66.35135538876057Q402.62437825649977 108.19581787288189 372.44653890281916 164.88891275972128H367.52639485895634V0H117.43192708492279V1490H371.8108544945717V912.3466959670186H375.55762288719416Q406.46418538689613 966.2220743820071 451.80641032010317 1005.8866092935205Q497.1486352533102 1045.5511442050338 557.8709830716252 1067.5579565428197Q618.5933308899403 1089.5647688806057 693.6247412115335 1089.5647688806057Q828.3492919951677 1089.5647688806057 931.1471199579537 1020.9425447583199Q1033.9449479207397 952.320320636034 1092.202733565122 827.5869510881603Q1150.4605192095041 702.8535815402865 1150.4605192095041 534.9423828125Q1150.4605192095041 366.5068139657378 1092.9338252805173 241.522336833179Q1035.4071313515306 116.53785970062017 932.4293107129633 47.664495442062616Q829.4514900743961 -21.20886881649494 692.3270296230912 -21.20886881649494ZM630.3861857131124 190.4066162109375Q710.9957145228982 190.4066162109375 769.5872977748513 231.62248453870416Q828.1788810268044 272.8383528664708 860.3791394084692 350.10557007044554Q892.579397790134 427.37278727442026 892.579397790134 535.2268424481153Q892.579397790134 643.5164518207312 860.450254317373 720.2192232236266Q828.3211108446121 796.9219946265221 769.729527592659 837.9645178206265Q711.1379443407059 879.0070410147309 630.3861857131124 879.0070410147309Q547.4343929067254 879.0070410147309 486.53841837868094 836.4000679515302Q425.6424438506365 793.7930948883295 392.7400264516473 716.7347684726119Q359.8376090526581 639.6764420568943 359.8376090526581 535.2268424481153Q359.8376090526581 431.4350260421634 392.8111413605511 353.78113850951195Q425.78467366844416 276.1272509768605 486.75176310539246 233.266933593899Q547.7188525423408 190.4066162109375 630.3861857131124 190.4066162109375Z"/></g><g transform="translate(72,52) scale(0.005859,-0.005859)" fill="#64748B"><path transform="translate(0.0,0)" d="M677 -24Q571 -24 506.0 12.5Q441 49 406.0 95.5Q371 142 352 173H332V0H158V1490H338V939H352Q371 969 405.0 1014.5Q439 1060 503.0 1096.0Q567 1132 676 1132Q816 1132 922.5 1062.0Q1029 992 1089.5 862.5Q1150 733 1150 556Q1150 378 1090.0 248.0Q1030 118 923.5 47.0Q817 -24 677 -24ZM650 137Q755 137 825.5 193.5Q896 250 931.5 345.5Q967 441 967 558Q967 674 932.0 767.5Q897 861 826.5 916.0Q756 971 650 971Q547 971 477.0 919.0Q407 867 371.5 774.5Q336 682 336 558Q336 434 372.0 339.0Q408 244 478.5 190.5Q549 137 650 137Z"/><path transform="translate(1288.1,0)" d="M471 -26Q365 -26 278.5 14.0Q192 54 141.0 131.0Q90 208 90 318Q90 414 128.0 474.0Q166 534 229.5 568.5Q293 603 370.0 620.0Q447 637 525 647Q625 660 688.0 667.0Q751 674 781.5 691.0Q812 708 812 749V755Q812 825 786.0 873.5Q760 922 708.0 948.0Q656 974 578 974Q498 974 441.0 949.0Q384 924 348.5 886.5Q313 849 295 810L122 867Q165 969 238.0 1026.5Q311 1084 399.0 1108.0Q487 1132 573 1132Q629 1132 700.5 1118.5Q772 1105 838.5 1065.0Q905 1025 948.5 946.5Q992 868 992 737V0H815V152H803Q784 113 742.0 71.5Q700 30 633.0 2.0Q566 -26 471 -26ZM502 133Q602 133 671.0 172.0Q740 211 776.0 273.5Q812 336 812 404V559Q801 546 764.0 535.5Q727 525 679.5 517.0Q632 509 587.5 503.5Q543 498 517 495Q452 487 395.5 467.5Q339 448 305.0 410.5Q271 373 271 309Q271 251 301.0 212.0Q331 173 383.0 153.0Q435 133 502 133Z"/><path transform="translate(2472.3,0)" d="M613 -24Q461 -24 346.5 48.0Q232 120 168.0 250.0Q104 380 104 552Q104 727 168.0 857.5Q232 988 346.5 1060.0Q461 1132 613 1132Q694 1132 766.0 1111.0Q838 1090 897.5 1050.5Q957 1011 1000.0 953.5Q1043 896 1066 823L893 774Q881 817 856.0 853.0Q831 889 795.5 915.5Q760 942 714.0 956.5Q668 971 613 971Q501 971 429.0 912.5Q357 854 322.0 759.0Q287 664 287 552Q287 442 322.0 347.5Q357 253 429.0 195.0Q501 137 613 137Q669 137 716.0 152.0Q763 167 799.5 194.5Q836 222 861.0 260.0Q886 298 898 343L1070 294Q1048 219 1004.5 160.5Q961 102 901.0 60.5Q841 19 768.0 -2.5Q695 -24 613 -24Z"/><path transform="translate(3676.4,0)" d="M327 402V625H360L838 1118H1061L544 587H524ZM158 0V1490H338V0ZM865 0 437 547 565 674 1096 0Z"/><path transform="translate(4834.5,0)" d="M598 1118V964H20V1118ZM188 1384H368V290Q368 215 398.5 180.5Q429 146 500 146Q517 146 543.5 150.0Q570 154 592 158L629 6Q601 -4 565.5 -9.0Q530 -14 495 -14Q350 -14 269.0 62.5Q188 139 188 276Z"/><path transform="translate(5538.7,0)" d="M628 -24Q466 -24 348.5 48.0Q231 120 167.5 249.0Q104 378 104 550Q104 722 166.0 853.0Q228 984 341.5 1058.0Q455 1132 607 1132Q696 1132 782.5 1102.5Q869 1073 939.5 1007.5Q1010 942 1052.0 835.0Q1094 728 1094 573V498H226V650H997L913 594Q913 704 878.5 789.5Q844 875 776.0 923.5Q708 972 607 972Q506 972 434.0 922.5Q362 873 324.0 793.5Q286 714 286 623V522Q286 398 329.0 311.5Q372 225 449.5 180.5Q527 136 629 136Q695 136 749.0 155.0Q803 174 842.0 212.5Q881 251 902 308L1076 260Q1050 176 988.0 112.0Q926 48 834.5 12.0Q743 -24 628 -24Z"/><path transform="translate(6766.8,0)" d="M538 -24Q423 -24 333.5 9.5Q244 43 186.0 109.0Q128 175 108 271L279 312Q303 220 369.5 177.0Q436 134 536 134Q653 134 722.5 184.0Q792 234 792 303Q792 361 751.5 399.5Q711 438 628 457L442 501Q290 537 216.0 612.5Q142 688 142 806Q142 902 196.0 975.5Q250 1049 343.5 1090.5Q437 1132 556 1132Q671 1132 751.5 1097.5Q832 1063 882.5 1002.5Q933 942 958 863L795 821Q772 881 718.5 930.0Q665 979 557 979Q457 979 390.5 933.0Q324 887 324 817Q324 755 369.0 717.5Q414 680 512 657L681 617Q833 581 906.0 505.5Q979 430 979 315Q979 217 923.5 140.5Q868 64 768.5 20.0Q669 -24 538 -24Z"/><path transform="translate(7881.9,0)" d="M598 1118V964H20V1118ZM188 1384H368V290Q368 215 398.5 180.5Q429 146 500 146Q517 146 543.5 150.0Q570 154 592 158L629 6Q601 -4 565.5 -9.0Q530 -14 495 -14Q350 -14 269.0 62.5Q188 139 188 276Z"/><path transform="translate(9196.2,0)" d="M677 -24Q571 -24 506.0 12.5Q441 49 406.0 95.5Q371 142 352 173H332V0H158V1490H338V939H352Q371 969 405.0 1014.5Q439 1060 503.0 1096.0Q567 1132 676 1132Q816 1132 922.5 1062.0Q1029 992 1089.5 862.5Q1150 733 1150 556Q1150 378 1090.0 248.0Q1030 118 923.5 47.0Q817 -24 677 -24ZM650 137Q755 137 825.5 193.5Q896 250 931.5 345.5Q967 441 967 558Q967 674 932.0 767.5Q897 861 826.5 916.0Q756 971 650 971Q547 971 477.0 919.0Q407 867 371.5 774.5Q336 682 336 558Q336 434 372.0 339.0Q408 244 478.5 190.5Q549 137 650 137Z"/><path transform="translate(10484.3,0)" d="M628 -24Q466 -24 348.5 48.0Q231 120 167.5 249.0Q104 378 104 550Q104 722 166.0 853.0Q228 984 341.5 1058.0Q455 1132 607 1132Q696 1132 782.5 1102.5Q869 1073 939.5 1007.5Q1010 942 1052.0 835.0Q1094 728 1094 573V498H226V650H997L913 594Q913 704 878.5 789.5Q844 875 776.0 923.5Q708 972 607 972Q506 972 434.0 922.5Q362 873 324.0 793.5Q286 714 286 623V522Q286 398 329.0 311.5Q372 225 449.5 180.5Q527 136 629 136Q695 136 749.0 155.0Q803 174 842.0 212.5Q881 251 902 308L1076 260Q1050 176 988.0 112.0Q926 48 834.5 12.0Q743 -24 628 -24Z"/><path transform="translate(11712.5,0)" d="M678 1118V964H20V1118ZM240 0V1267Q240 1364 285.5 1429.0Q331 1494 404.0 1527.0Q477 1560 558 1560Q622 1560 664.0 1549.5Q706 1539 726 1530L676 1376Q662 1381 639.5 1387.0Q617 1393 579 1393Q496 1393 458.0 1350.5Q420 1308 420 1227V0Z"/><path transform="translate(12504.6,0)" d="M613 -24Q461 -24 346.5 48.0Q232 120 168.0 250.0Q104 380 104 552Q104 727 168.0 857.5Q232 988 346.5 1060.0Q461 1132 613 1132Q766 1132 881.0 1060.0Q996 988 1060.0 857.5Q1124 727 1124 552Q1124 380 1060.0 250.0Q996 120 881.0 48.0Q766 -24 613 -24ZM613 137Q726 137 799.0 195.0Q872 253 907.0 347.5Q942 442 942 552Q942 663 907.0 758.5Q872 854 799.0 912.5Q726 971 613 971Q501 971 429.0 912.5Q357 854 322.0 759.0Q287 664 287 552Q287 442 322.0 347.5Q357 253 429.0 195.0Q501 137 613 137Z"/><path transform="translate(13766.7,0)" d="M158 0V1118H332V946H344Q375 1031 454.5 1082.5Q534 1134 634 1134Q654 1134 681.5 1133.0Q709 1132 725 1131V950Q717 952 685.0 956.0Q653 960 617 960Q537 960 473.5 926.5Q410 893 374.0 834.5Q338 776 338 700V0Z"/><path transform="translate(14571.9,0)" d="M628 -24Q466 -24 348.5 48.0Q231 120 167.5 249.0Q104 378 104 550Q104 722 166.0 853.0Q228 984 341.5 1058.0Q455 1132 607 1132Q696 1132 782.5 1102.5Q869 1073 939.5 1007.5Q1010 942 1052.0 835.0Q1094 728 1094 573V498H226V650H997L913 594Q913 704 878.5 789.5Q844 875 776.0 923.5Q708 972 607 972Q506 972 434.0 922.5Q362 873 324.0 793.5Q286 714 286 623V522Q286 398 329.0 311.5Q372 225 449.5 180.5Q527 136 629 136Q695 136 749.0 155.0Q803 174 842.0 212.5Q881 251 902 308L1076 260Q1050 176 988.0 112.0Q926 48 834.5 12.0Q743 -24 628 -24Z"/><path transform="translate(16410.1,0)" d="M140 -405 186 -249 205 -254Q260 -268 305.0 -261.5Q350 -255 386.0 -217.0Q422 -179 449 -99L481 -6L54 1118H251L489 455Q527 351 553.0 249.0Q579 147 608 51H542Q571 147 597.5 249.5Q624 352 661 455L901 1118H1097L606 -167Q572 -256 524.5 -313.5Q477 -371 414.0 -398.5Q351 -426 272 -426Q224 -426 189.0 -419.0Q154 -412 140 -405Z"/><path transform="translate(17595.3,0)" d="M613 -24Q461 -24 346.5 48.0Q232 120 168.0 250.0Q104 380 104 552Q104 727 168.0 857.5Q232 988 346.5 1060.0Q461 1132 613 1132Q766 1132 881.0 1060.0Q996 988 1060.0 857.5Q1124 727 1124 552Q1124 380 1060.0 250.0Q996 120 881.0 48.0Q766 -24 613 -24ZM613 137Q726 137 799.0 195.0Q872 253 907.0 347.5Q942 442 942 552Q942 663 907.0 758.5Q872 854 799.0 912.5Q726 971 613 971Q501 971 429.0 912.5Q357 854 322.0 759.0Q287 664 287 552Q287 442 322.0 347.5Q357 253 429.0 195.0Q501 137 613 137Z"/><path transform="translate(18857.4,0)" d="M537 -14Q424 -14 338.5 32.5Q253 79 205.5 173.0Q158 267 158 408V1118H338V423Q338 294 406.0 221.0Q474 148 591 148Q671 148 734.5 183.0Q798 218 835.0 285.5Q872 353 872 448V1118H1053V0H879V271H903Q851 114 755.5 50.0Q660 -14 537 -14Z"/><path transform="translate(20712.7,0)" d="M158 0V1118H338V0ZM249 1301Q198 1301 161.0 1336.0Q124 1371 124 1420Q124 1470 161.0 1504.5Q198 1539 249 1539Q301 1539 338.0 1504.5Q375 1470 375 1420Q375 1371 338.0 1336.0Q301 1301 249 1301Z"/><path transform="translate(21242.8,0)" d="M338 670V0H158V1118H331L332 847H307Q358 1002 452.5 1067.0Q547 1132 674 1132Q787 1132 872.0 1085.5Q957 1039 1004.5 945.5Q1052 852 1052 710V0H872V695Q872 824 804.5 897.0Q737 970 620 970Q540 970 476.0 935.0Q412 900 375.0 833.0Q338 766 338 670Z"/><path transform="translate(22486.9,0)" d="M481 0 54 1118H251L489 455Q527 352 553.5 249.5Q580 147 609 51H543Q572 147 598.5 249.5Q625 352 662 455L900 1118H1097L670 0Z"/><path transform="translate(23672.1,0)" d="M628 -24Q466 -24 348.5 48.0Q231 120 167.5 249.0Q104 378 104 550Q104 722 166.0 853.0Q228 984 341.5 1058.0Q455 1132 607 1132Q696 1132 782.5 1102.5Q869 1073 939.5 1007.5Q1010 942 1052.0 835.0Q1094 728 1094 573V498H226V650H997L913 594Q913 704 878.5 789.5Q844 875 776.0 923.5Q708 972 607 972Q506 972 434.0 922.5Q362 873 324.0 793.5Q286 714 286 623V522Q286 398 329.0 311.5Q372 225 449.5 180.5Q527 136 629 136Q695 136 749.0 155.0Q803 174 842.0 212.5Q881 251 902 308L1076 260Q1050 176 988.0 112.0Q926 48 834.5 12.0Q743 -24 628 -24Z"/><path transform="translate(24900.2,0)" d="M538 -24Q423 -24 333.5 9.5Q244 43 186.0 109.0Q128 175 108 271L279 312Q303 220 369.5 177.0Q436 134 536 134Q653 134 722.5 184.0Q792 234 792 303Q792 361 751.5 399.5Q711 438 628 457L442 501Q290 537 216.0 612.5Q142 688 142 806Q142 902 196.0 975.5Q250 1049 343.5 1090.5Q437 1132 556 1132Q671 1132 751.5 1097.5Q832 1063 882.5 1002.5Q933 942 958 863L795 821Q772 881 718.5 930.0Q665 979 557 979Q457 979 390.5 933.0Q324 887 324 817Q324 755 369.0 717.5Q414 680 512 657L681 617Q833 581 906.0 505.5Q979 430 979 315Q979 217 923.5 140.5Q868 64 768.5 20.0Q669 -24 538 -24Z"/><path transform="translate(26015.3,0)" d="M598 1118V964H20V1118ZM188 1384H368V290Q368 215 398.5 180.5Q429 146 500 146Q517 146 543.5 150.0Q570 154 592 158L629 6Q601 -4 565.5 -9.0Q530 -14 495 -14Q350 -14 269.0 62.5Q188 139 188 276Z"/></g></svg>
